<svg viewBox="0 0 73 80" fill="none" xmlns="http://www.w3.org/2000/svg"><path d="M67.14 75.602C61.08 79.022 50.685 80 36.307 80s-24.772-.978-30.83-4.398C1.84 73.555 0 70.762 0 68.761c0-1.14.606-1.792 1.957-1.792h68.701c1.352 0 1.957.652 1.957 1.792.001 2.002-1.84 4.794-5.476 6.841Zm3.518-53.054H1.957C.607 22.548 0 21.85 0 20.594 0 13.147 11.21 0 36.308 0c24.866 0 36.308 13.147 36.308 20.594 0 1.256-.606 1.954-1.958 1.954Z" fill="#FF8732"/><path fill-rule="evenodd" clip-rule="evenodd" d="M49.662 34.998c0 3.396-2.307 5.724-5.966 5.724-3.472 0-6.991-2.444-6.99-7.7 0-5.492 3.519-7.866 7.131-7.866 2.051 0 3.426.535 4.405 1.256a2.23 2.23 0 0 1 .885 1.816c0 1.07-.839 2.094-2.075 2.094-.487 0-.806-.164-1.153-.343-.417-.214-.874-.449-1.713-.449-1.258 0-2.89.93-2.89 3.49 0 2.304 1.188 3.537 2.937 3.537.56 0 1.049-.28 1.049-.698 0-.325-.28-.465-.723-.465-.863 0-2.005-.628-2.005-1.932 0-1.466 1.072-2.118 2.448-2.118h.745c2.61 0 3.915 1.49 3.915 3.654Zm-35.26 17.638c0 .093.023.302.233.628.56.86 2.098 2.722 3.403 4.144 1.026 1.117 1.562 2.048 1.562 3.304 0 2.024-1.818 3.91-3.985 3.91-1.282 0-2.494-.676-3.473-1.746-1.445-1.605-3.006-4.328-3.542-5.607a2.059 2.059 0 0 1-.044-.096c-.084-.195-.2-.462-.515-.462-.28 0-.397.208-.397.488v3.304c0 2.28-1.351 4.119-3.799 4.119-2.47 0-3.799-1.84-3.799-4.12V46.169c0-2.28 1.33-4.119 3.8-4.119 2.447 0 3.798 1.84 3.798 4.12v2.327c0 .302.117.488.397.488.162 0 .279-.046.489-.256.837-.815 2.143-2.863 3.238-4.631.816-1.326 2.027-2.048 3.31-2.048 2.004 0 3.845 1.583 3.845 3.607 0 .79-.28 1.745-.956 2.792-.885 1.373-2.493 2.885-3.146 3.49-.279.256-.419.442-.419.698ZM2.726 40.582h3.286c3.1 0 4.987-2.072 4.987-4.654 0-2.007-1.16-2.965-1.486-3.234l-.028-.023-.005-.004c-.114-.092-.228-.184-.228-.276 0-.09.043-.139.117-.222l.07-.08c.442-.512.885-1.326.885-2.514 0-2.792-1.888-4.281-4.824-4.281H2.726C.886 25.294 0 26.365 0 27.807V38.07c0 1.443.885 2.513 2.726 2.513Zm1.376-11.285c0-.302.186-.536.582-.536h.303c1.002 0 1.306.698 1.306 1.304 0 .558-.303 1.35-1.306 1.35h-.303c-.396 0-.582-.233-.582-.536v-1.582Zm0 5.445c0-.302.186-.535.582-.535h.42c1.118 0 1.444.744 1.444 1.42 0 .605-.327 1.465-1.445 1.465h-.419c-.396 0-.582-.232-.582-.536v-1.814Zm61.78 3.443c0 1.395-.816 2.513-2.308 2.513s-2.307-1.116-2.307-2.51v-10.38c0-1.443.885-2.513 2.726-2.513h2.633c2.96 0 5.408 1.676 5.408 4.631 0 1.954-.84 3.188-1.562 3.746-.21.162-.256.326-.186.512.302.814.791 1.466 1.584 2.466.419.534.745 1.116.745 1.908 0 1.187-1.049 2.141-2.26 2.141-.746 0-1.491-.326-2.284-1.373-.63-.816-1.188-2.421-1.398-3.608-.047-.28-.139-.442-.42-.442-.232 0-.372.14-.372.442v2.467Zm.326-9.028c-.397 0-.583.233-.583.536v1.582c0 .303.186.535.583.535h.326c.98 0 1.282-.768 1.282-1.35 0-.605-.303-1.303-1.282-1.303h-.326ZM25.26 42.047c-2.61 0-4.031 1.955-4.031 4.399v13.776c0 2.443 1.421 4.397 4.031 4.397 2.61 0 4.032-1.954 4.032-4.397V46.446c0-2.443-1.42-4.398-4.032-4.398Zm40.294 8.96h1.142c3.939 0 5.896 2.164 5.894 5.28 0 4.934-3.472 8.307-8.948 8.307-5.221 0-10.51-3.56-10.51-11.169 0-7.958 5.29-11.378 10.72-11.378 3.03 0 5.173.768 6.595 1.815.815.606 1.328 1.49 1.328 2.63a3.09 3.09 0 0 1-3.122 3.048c-.732 0-1.208-.241-1.727-.504-.621-.314-1.304-.66-2.561-.66-1.887 0-4.335 1.35-4.335 5.05 0 3.327 1.795 5.119 4.428 5.119.793 0 1.538-.395 1.538-1 0-.489-.442-.675-1.071-.675-1.282 0-3.006-.907-3.006-2.815 0-2.094 1.584-3.048 3.635-3.048Zm-7.667-10.425c1.306 0 2.331-.768 2.331-2.164 0-1.374-1.025-2.142-2.33-2.142H55.79c-.396 0-.583-.232-.583-.535v-.442c0-.302.187-.536.583-.536h1.608c1.12 0 2.005-.674 2.005-1.862 0-1.186-.886-1.861-2.005-1.861h-1.608c-.396 0-.583-.232-.583-.536v-.372c0-.302.187-.536.583-.536h2.097c1.306 0 2.331-.768 2.331-2.164 0-1.373-1.025-2.141-2.33-2.141h-4.405c-1.84 0-2.726 1.07-2.726 2.514v10.26c0 1.443.885 2.514 2.726 2.514h4.404v.003Zm-34.257-4.98c0 2.838-2.005 5.096-5.78 5.096-3.775 0-5.756-2.256-5.757-5.096v-7.841c0-1.396.815-2.514 2.307-2.514s2.33 1.118 2.33 2.514v7.585c0 .558.28 1.21 1.12 1.21.839 0 1.165-.652 1.165-1.21v-7.585c0-1.396.816-2.514 2.308-2.514 1.491 0 2.307 1.118 2.307 2.514v7.841Zm10.58 5.096c1.212 0 2.261-.954 2.261-2.141 0-.792-.326-1.374-.745-1.908l-.113-.147c-.63-.823-1.186-1.55-1.472-2.32-.07-.185-.023-.349.187-.511.722-.558 1.562-1.792 1.562-3.746 0-2.956-2.448-4.631-5.408-4.631H27.85c-1.841 0-2.727 1.07-2.727 2.513v10.379c0 1.396.816 2.513 2.308 2.513s2.307-1.117 2.307-2.513V35.72c0-.302.14-.442.373-.442.28 0 .372.162.418.442.21 1.186.77 2.792 1.399 3.607.792 1.045 1.538 1.371 2.284 1.371Zm-3.823-8.889h-.326c-.396 0-.583-.232-.583-.536v-1.58c0-.303.187-.536.583-.536h.326c.98 0 1.282.698 1.282 1.303 0 .581-.303 1.35-1.282 1.35Zm13.517 14.288c0-2.257 1.304-4.05 3.705-4.05s3.705 1.793 3.705 4.05V60.48c0 2.304-1.351 4.142-3.799 4.142-1.421 0-2.75-.558-3.985-2.956l-3.239-6.283c-.162-.326-.302-.442-.489-.442-.256 0-.396.187-.396.606v5.025c0 2.258-1.304 4.05-3.705 4.05-2.4 0-3.705-1.792-3.705-4.05V46.19c0-2.304 1.351-4.142 3.798-4.142 1.469 0 2.75.558 3.986 2.955l3.239 6.283c.162.326.302.442.489.442.256 0 .396-.187.396-.605v-5.026Z" fill="#D62300"/></svg>